<?xml version="1.0" encoding="UTF-8" standalone="no"?>
<!DOCTYPE svg PUBLIC "-//W3C//DTD SVG 1.1//EN"
 "http://www.w3.org/Graphics/SVG/1.1/DTD/svg11.dtd">
<!-- Generated by graphviz version 2.26.3 (20100126.1600)
 -->
<!-- Title: vacuumed Pages: 1 -->
<svg width="1395pt" height="1008pt"
 viewBox="0.00 0.00 1395.00 1008.00" xmlns="http://www.w3.org/2000/svg" xmlns:xlink="http://www.w3.org/1999/xlink">
<g id="graph1" class="graph" transform="scale(1 1) rotate(0) translate(4 1004)">
<title>vacuumed</title>
<polygon fill="white" stroke="white" points="-4,5 -4,-1004 1392,-1004 1392,5 -4,5"/>
<!-- 0 -->
<g id="node1" class="node"><title>0</title>
<polygon fill="none" stroke="black" points="240,-963 240,-999 404,-999 404,-963 240,-963"/>
<text text-anchor="middle" x="301" y="-976.9" font-family="Times Roman,serif" font-size="14.00">SomeException</text>
<polyline fill="none" stroke="black" points="362,-963 362,-999 "/>
<text text-anchor="middle" x="372.5" y="-976.9" font-family="Times Roman,serif" font-size="14.00"> </text>
<polyline fill="none" stroke="black" points="383,-963 383,-999 "/>
<text text-anchor="middle" x="393.5" y="-976.9" font-family="Times Roman,serif" font-size="14.00"> </text>
</g>
<!-- 1 -->
<g id="node2" class="node"><title>1</title>
<polygon fill="none" stroke="black" points="219.5,-889 219.5,-925 424.5,-925 424.5,-889 219.5,-889"/>
<text text-anchor="middle" x="269.5" y="-902.9" font-family="Times Roman,serif" font-size="14.00">D:Exception</text>
<polyline fill="none" stroke="black" points="319.5,-889 319.5,-925 "/>
<text text-anchor="middle" x="330" y="-902.9" font-family="Times Roman,serif" font-size="14.00"> </text>
<polyline fill="none" stroke="black" points="340.5,-889 340.5,-925 "/>
<text text-anchor="middle" x="351" y="-902.9" font-family="Times Roman,serif" font-size="14.00"> </text>
<polyline fill="none" stroke="black" points="361.5,-889 361.5,-925 "/>
<text text-anchor="middle" x="372" y="-902.9" font-family="Times Roman,serif" font-size="14.00"> </text>
<polyline fill="none" stroke="black" points="382.5,-889 382.5,-925 "/>
<text text-anchor="middle" x="393" y="-902.9" font-family="Times Roman,serif" font-size="14.00"> </text>
<polyline fill="none" stroke="black" points="403.5,-889 403.5,-925 "/>
<text text-anchor="middle" x="414" y="-902.9" font-family="Times Roman,serif" font-size="14.00"> </text>
</g>
<!-- 0&#45;&gt;1 -->
<g id="edge2" class="edge"><title>0:1&#45;&gt;1:con</title>
<path fill="none" stroke="black" d="M373,-963C373,-917.826 285.363,-965.036 270.985,-935.018"/>
<polygon fill="black" stroke="black" points="274.377,-934.129 269,-925 267.51,-935.49 274.377,-934.129"/>
</g>
<!-- 2 -->
<g id="node3" class="node"><title>2</title>
<polygon fill="none" stroke="black" points="536.5,-889 536.5,-925 599.5,-925 599.5,-889 536.5,-889"/>
<text text-anchor="middle" x="547" y="-902.9" font-family="Times Roman,serif" font-size="14.00">:</text>
<polyline fill="none" stroke="black" points="557.5,-889 557.5,-925 "/>
<text text-anchor="middle" x="568" y="-902.9" font-family="Times Roman,serif" font-size="14.00"> </text>
<polyline fill="none" stroke="black" points="578.5,-889 578.5,-925 "/>
<text text-anchor="middle" x="589" y="-902.9" font-family="Times Roman,serif" font-size="14.00"> </text>
</g>
<!-- 0&#45;&gt;2 -->
<g id="edge4" class="edge"><title>0:2&#45;&gt;2:con</title>
<path fill="none" stroke="black" d="M404,-981C467.71,-981 468.814,-914.599 525.921,-907.596"/>
<polygon fill="black" stroke="black" points="526.224,-911.084 536,-907 525.811,-904.096 526.224,-911.084"/>
</g>
<!-- 3 -->
<g id="node4" class="node"><title>3</title>
<polygon fill="none" stroke="black" points="-0.5,-815 -0.5,-851 102.5,-851 102.5,-815 -0.5,-815"/>
<text text-anchor="middle" x="51" y="-828.9" font-family="Times Roman,serif" font-size="14.00">FUN_STATIC</text>
</g>
<!-- 1&#45;&gt;3 -->
<g id="edge6" class="edge"><title>1:1&#45;&gt;3:con</title>
<path fill="none" stroke="black" d="M330,-888C330,-839.595 171.303,-861.48 110.24,-852.952"/>
<polygon fill="black" stroke="black" points="110.831,-849.501 100.352,-851.065 109.519,-856.377 110.831,-849.501"/>
</g>
<!-- 4 -->
<g id="node5" class="node"><title>4</title>
<polygon fill="none" stroke="black" points="120,-815 120,-851 254,-851 254,-815 120,-815"/>
<text text-anchor="middle" x="155.5" y="-828.9" font-family="Times Roman,serif" font-size="14.00">D:Show</text>
<polyline fill="none" stroke="black" points="191,-815 191,-851 "/>
<text text-anchor="middle" x="201.5" y="-828.9" font-family="Times Roman,serif" font-size="14.00"> </text>
<polyline fill="none" stroke="black" points="212,-815 212,-851 "/>
<text text-anchor="middle" x="222.5" y="-828.9" font-family="Times Roman,serif" font-size="14.00"> </text>
<polyline fill="none" stroke="black" points="233,-815 233,-851 "/>
<text text-anchor="middle" x="243.5" y="-828.9" font-family="Times Roman,serif" font-size="14.00"> </text>
</g>
<!-- 1&#45;&gt;4 -->
<g id="edge8" class="edge"><title>1:2&#45;&gt;4:con</title>
<path fill="none" stroke="black" d="M351,-889C351,-804.08 171.482,-928.169 156.055,-861.21"/>
<polygon fill="black" stroke="black" points="159.509,-860.587 155,-851 152.546,-861.307 159.509,-860.587"/>
</g>
<!-- 5 -->
<g id="node6" class="node"><title>5</title>
<polygon fill="none" stroke="black" points="271.5,-815 271.5,-851 374.5,-851 374.5,-815 271.5,-815"/>
<text text-anchor="middle" x="323" y="-828.9" font-family="Times Roman,serif" font-size="14.00">FUN_STATIC</text>
</g>
<!-- 1&#45;&gt;5 -->
<g id="edge10" class="edge"><title>1:3&#45;&gt;5:con</title>
<path fill="none" stroke="black" d="M372,-888C372,-876.642 366.103,-866.545 358.4,-858.202"/>
<polygon fill="black" stroke="black" points="360.576,-855.44 350.935,-851.046 355.732,-860.493 360.576,-855.44"/>
</g>
<!-- 6 -->
<g id="node7" class="node"><title>6</title>
<polygon fill="none" stroke="black" points="391.5,-815 391.5,-851 494.5,-851 494.5,-815 391.5,-815"/>
<text text-anchor="middle" x="443" y="-828.9" font-family="Times Roman,serif" font-size="14.00">FUN_STATIC</text>
</g>
<!-- 1&#45;&gt;6 -->
<g id="edge12" class="edge"><title>1:4&#45;&gt;6:con</title>
<path fill="none" stroke="black" d="M393,-888C393,-876.522 399.036,-866.38 406.913,-858.032"/>
<polygon fill="black" stroke="black" points="409.322,-860.572 414.205,-851.169 404.524,-855.475 409.322,-860.572"/>
</g>
<!-- 7 -->
<g id="node8" class="node"><title>7</title>
<polygon fill="none" stroke="black" points="220.5,-741 220.5,-777 323.5,-777 323.5,-741 220.5,-741"/>
<text text-anchor="middle" x="272" y="-754.9" font-family="Times Roman,serif" font-size="14.00">FUN_STATIC</text>
</g>
<!-- 1&#45;&gt;7 -->
<g id="edge14" class="edge"><title>1:5&#45;&gt;7:con</title>
<path fill="none" stroke="black" d="M414,-888C414,-845.331 479.147,-887.379 503,-852 512.441,-837.997 513.69,-827.075 503,-814 453.452,-753.396 405.667,-795.776 331.08,-779.461"/>
<polygon fill="black" stroke="black" points="331.911,-776.061 321.361,-777.032 330.214,-782.852 331.911,-776.061"/>
</g>
<!-- 10 -->
<g id="node11" class="node"><title>10</title>
<polygon fill="none" stroke="black" points="549.5,-815 549.5,-851 608.5,-851 608.5,-815 549.5,-815"/>
<text text-anchor="middle" x="568.5" y="-828.9" font-family="Times Roman,serif" font-size="14.00">C#</text>
<polyline fill="none" stroke="black" points="587.5,-815 587.5,-851 "/>
<text text-anchor="middle" x="598" y="-828.9" font-family="Times Roman,serif" font-size="14.00"> </text>
</g>
<!-- 2&#45;&gt;10 -->
<g id="edge16" class="edge"><title>2:1&#45;&gt;10:con</title>
<path fill="none" stroke="black" d="M568,-889C568,-876.069 568,-870.564 568,-861.114"/>
<polygon fill="black" stroke="black" points="571.5,-861 568,-851 564.5,-861 571.5,-861"/>
</g>
<!-- 11 -->
<g id="node12" class="node"><title>11</title>
<polygon fill="none" stroke="black" points="625.5,-815 625.5,-851 688.5,-851 688.5,-815 625.5,-815"/>
<text text-anchor="middle" x="636" y="-828.9" font-family="Times Roman,serif" font-size="14.00">:</text>
<polyline fill="none" stroke="black" points="646.5,-815 646.5,-851 "/>
<text text-anchor="middle" x="657" y="-828.9" font-family="Times Roman,serif" font-size="14.00"> </text>
<polyline fill="none" stroke="black" points="667.5,-815 667.5,-851 "/>
<text text-anchor="middle" x="678" y="-828.9" font-family="Times Roman,serif" font-size="14.00"> </text>
</g>
<!-- 2&#45;&gt;11 -->
<g id="edge18" class="edge"><title>2:2&#45;&gt;11:con</title>
<path fill="none" stroke="black" d="M589,-889C589,-866.335 622.46,-873.988 632.916,-860.797"/>
<polygon fill="black" stroke="black" points="636.336,-861.59 636,-851 629.659,-859.488 636.336,-861.59"/>
</g>
<!-- 4&#45;&gt;7 -->
<g id="edge22" class="edge"><title>4:2&#45;&gt;7:con</title>
<path fill="none" stroke="black" d="M223,-814C223,-802.642 228.897,-792.545 236.6,-784.202"/>
<polygon fill="black" stroke="black" points="239.268,-786.493 244.065,-777.046 234.424,-781.44 239.268,-786.493"/>
</g>
<!-- 8 -->
<g id="node9" class="node"><title>8</title>
<polygon fill="none" stroke="black" points="100.5,-741 100.5,-777 203.5,-777 203.5,-741 100.5,-741"/>
<text text-anchor="middle" x="152" y="-754.9" font-family="Times Roman,serif" font-size="14.00">FUN_STATIC</text>
</g>
<!-- 4&#45;&gt;8 -->
<g id="edge20" class="edge"><title>4:1&#45;&gt;8:con</title>
<path fill="none" stroke="black" d="M202,-814C202,-802.522 195.964,-792.38 188.087,-784.032"/>
<polygon fill="black" stroke="black" points="190.476,-781.475 180.795,-777.169 185.678,-786.572 190.476,-781.475"/>
</g>
<!-- 9 -->
<g id="node10" class="node"><title>9</title>
<polygon fill="none" stroke="black" points="340.5,-741 340.5,-777 443.5,-777 443.5,-741 340.5,-741"/>
<text text-anchor="middle" x="392" y="-754.9" font-family="Times Roman,serif" font-size="14.00">FUN_STATIC</text>
</g>
<!-- 4&#45;&gt;9 -->
<g id="edge24" class="edge"><title>4:3&#45;&gt;9:con</title>
<path fill="none" stroke="black" d="M255,-833C264.162,-833 256.536,-820.493 263,-814 268.726,-808.248 303.483,-793.568 335.476,-780.819"/>
<polygon fill="black" stroke="black" points="336.83,-784.048 344.839,-777.111 334.253,-777.539 336.83,-784.048"/>
</g>
<!-- 12 -->
<g id="node13" class="node"><title>12</title>
<polygon fill="none" stroke="black" points="614.5,-741 614.5,-777 673.5,-777 673.5,-741 614.5,-741"/>
<text text-anchor="middle" x="633.5" y="-754.9" font-family="Times Roman,serif" font-size="14.00">C#</text>
<polyline fill="none" stroke="black" points="652.5,-741 652.5,-777 "/>
<text text-anchor="middle" x="663" y="-754.9" font-family="Times Roman,serif" font-size="14.00"> </text>
</g>
<!-- 11&#45;&gt;12 -->
<g id="edge26" class="edge"><title>11:1&#45;&gt;12:con</title>
<path fill="none" stroke="black" d="M657,-815C657,-799.082 641.76,-797.088 635.568,-786.826"/>
<polygon fill="black" stroke="black" points="638.915,-785.79 633,-777 632.143,-787.56 638.915,-785.79"/>
</g>
<!-- 13 -->
<g id="node14" class="node"><title>13</title>
<polygon fill="none" stroke="black" points="690.5,-741 690.5,-777 753.5,-777 753.5,-741 690.5,-741"/>
<text text-anchor="middle" x="701" y="-754.9" font-family="Times Roman,serif" font-size="14.00">:</text>
<polyline fill="none" stroke="black" points="711.5,-741 711.5,-777 "/>
<text text-anchor="middle" x="722" y="-754.9" font-family="Times Roman,serif" font-size="14.00"> </text>
<polyline fill="none" stroke="black" points="732.5,-741 732.5,-777 "/>
<text text-anchor="middle" x="743" y="-754.9" font-family="Times Roman,serif" font-size="14.00"> </text>
</g>
<!-- 11&#45;&gt;13 -->
<g id="edge28" class="edge"><title>11:2&#45;&gt;13:con</title>
<path fill="none" stroke="black" d="M678,-815C678,-799.268 692.605,-797.015 698.539,-786.759"/>
<polygon fill="black" stroke="black" points="701.948,-787.552 701,-777 695.161,-785.84 701.948,-787.552"/>
</g>
<!-- 14 -->
<g id="node15" class="node"><title>14</title>
<polygon fill="none" stroke="black" points="679.5,-667 679.5,-703 738.5,-703 738.5,-667 679.5,-667"/>
<text text-anchor="middle" x="698.5" y="-680.9" font-family="Times Roman,serif" font-size="14.00">C#</text>
<polyline fill="none" stroke="black" points="717.5,-667 717.5,-703 "/>
<text text-anchor="middle" x="728" y="-680.9" font-family="Times Roman,serif" font-size="14.00"> </text>
</g>
<!-- 13&#45;&gt;14 -->
<g id="edge30" class="edge"><title>13:1&#45;&gt;14:con</title>
<path fill="none" stroke="black" d="M722,-741C722,-725.082 706.76,-723.088 700.568,-712.826"/>
<polygon fill="black" stroke="black" points="703.915,-711.79 698,-703 697.143,-713.56 703.915,-711.79"/>
</g>
<!-- 15 -->
<g id="node16" class="node"><title>15</title>
<polygon fill="none" stroke="black" points="755.5,-667 755.5,-703 818.5,-703 818.5,-667 755.5,-667"/>
<text text-anchor="middle" x="766" y="-680.9" font-family="Times Roman,serif" font-size="14.00">:</text>
<polyline fill="none" stroke="black" points="776.5,-667 776.5,-703 "/>
<text text-anchor="middle" x="787" y="-680.9" font-family="Times Roman,serif" font-size="14.00"> </text>
<polyline fill="none" stroke="black" points="797.5,-667 797.5,-703 "/>
<text text-anchor="middle" x="808" y="-680.9" font-family="Times Roman,serif" font-size="14.00"> </text>
</g>
<!-- 13&#45;&gt;15 -->
<g id="edge32" class="edge"><title>13:2&#45;&gt;15:con</title>
<path fill="none" stroke="black" d="M743,-741C743,-725.268 757.605,-723.015 763.539,-712.759"/>
<polygon fill="black" stroke="black" points="766.948,-713.552 766,-703 760.161,-711.84 766.948,-713.552"/>
</g>
<!-- 16 -->
<g id="node17" class="node"><title>16</title>
<polygon fill="none" stroke="black" points="744.5,-593 744.5,-629 803.5,-629 803.5,-593 744.5,-593"/>
<text text-anchor="middle" x="763.5" y="-606.9" font-family="Times Roman,serif" font-size="14.00">C#</text>
<polyline fill="none" stroke="black" points="782.5,-593 782.5,-629 "/>
<text text-anchor="middle" x="793" y="-606.9" font-family="Times Roman,serif" font-size="14.00"> </text>
</g>
<!-- 15&#45;&gt;16 -->
<g id="edge34" class="edge"><title>15:1&#45;&gt;16:con</title>
<path fill="none" stroke="black" d="M787,-667C787,-651.082 771.76,-649.088 765.568,-638.826"/>
<polygon fill="black" stroke="black" points="768.915,-637.79 763,-629 762.143,-639.56 768.915,-637.79"/>
</g>
<!-- 17 -->
<g id="node18" class="node"><title>17</title>
<polygon fill="none" stroke="black" points="820.5,-593 820.5,-629 883.5,-629 883.5,-593 820.5,-593"/>
<text text-anchor="middle" x="831" y="-606.9" font-family="Times Roman,serif" font-size="14.00">:</text>
<polyline fill="none" stroke="black" points="841.5,-593 841.5,-629 "/>
<text text-anchor="middle" x="852" y="-606.9" font-family="Times Roman,serif" font-size="14.00"> </text>
<polyline fill="none" stroke="black" points="862.5,-593 862.5,-629 "/>
<text text-anchor="middle" x="873" y="-606.9" font-family="Times Roman,serif" font-size="14.00"> </text>
</g>
<!-- 15&#45;&gt;17 -->
<g id="edge36" class="edge"><title>15:2&#45;&gt;17:con</title>
<path fill="none" stroke="black" d="M808,-667C808,-651.268 822.605,-649.015 828.539,-638.759"/>
<polygon fill="black" stroke="black" points="831.948,-639.552 831,-629 825.161,-637.84 831.948,-639.552"/>
</g>
<!-- 18 -->
<g id="node19" class="node"><title>18</title>
<polygon fill="none" stroke="black" points="809.5,-519 809.5,-555 868.5,-555 868.5,-519 809.5,-519"/>
<text text-anchor="middle" x="828.5" y="-532.9" font-family="Times Roman,serif" font-size="14.00">C#</text>
<polyline fill="none" stroke="black" points="847.5,-519 847.5,-555 "/>
<text text-anchor="middle" x="858" y="-532.9" font-family="Times Roman,serif" font-size="14.00"> </text>
</g>
<!-- 17&#45;&gt;18 -->
<g id="edge38" class="edge"><title>17:1&#45;&gt;18:con</title>
<path fill="none" stroke="black" d="M852,-593C852,-577.082 836.76,-575.088 830.568,-564.826"/>
<polygon fill="black" stroke="black" points="833.915,-563.79 828,-555 827.143,-565.56 833.915,-563.79"/>
</g>
<!-- 19 -->
<g id="node20" class="node"><title>19</title>
<polygon fill="none" stroke="black" points="885.5,-519 885.5,-555 948.5,-555 948.5,-519 885.5,-519"/>
<text text-anchor="middle" x="896" y="-532.9" font-family="Times Roman,serif" font-size="14.00">:</text>
<polyline fill="none" stroke="black" points="906.5,-519 906.5,-555 "/>
<text text-anchor="middle" x="917" y="-532.9" font-family="Times Roman,serif" font-size="14.00"> </text>
<polyline fill="none" stroke="black" points="927.5,-519 927.5,-555 "/>
<text text-anchor="middle" x="938" y="-532.9" font-family="Times Roman,serif" font-size="14.00"> </text>
</g>
<!-- 17&#45;&gt;19 -->
<g id="edge40" class="edge"><title>17:2&#45;&gt;19:con</title>
<path fill="none" stroke="black" d="M873,-593C873,-577.268 887.605,-575.015 893.539,-564.759"/>
<polygon fill="black" stroke="black" points="896.948,-565.552 896,-555 890.161,-563.84 896.948,-565.552"/>
</g>
<!-- 20 -->
<g id="node21" class="node"><title>20</title>
<polygon fill="none" stroke="black" points="874.5,-445 874.5,-481 933.5,-481 933.5,-445 874.5,-445"/>
<text text-anchor="middle" x="893.5" y="-458.9" font-family="Times Roman,serif" font-size="14.00">C#</text>
<polyline fill="none" stroke="black" points="912.5,-445 912.5,-481 "/>
<text text-anchor="middle" x="923" y="-458.9" font-family="Times Roman,serif" font-size="14.00"> </text>
</g>
<!-- 19&#45;&gt;20 -->
<g id="edge42" class="edge"><title>19:1&#45;&gt;20:con</title>
<path fill="none" stroke="black" d="M917,-519C917,-503.082 901.76,-501.088 895.568,-490.826"/>
<polygon fill="black" stroke="black" points="898.915,-489.79 893,-481 892.143,-491.56 898.915,-489.79"/>
</g>
<!-- 21 -->
<g id="node22" class="node"><title>21</title>
<polygon fill="none" stroke="black" points="950.5,-445 950.5,-481 1013.5,-481 1013.5,-445 950.5,-445"/>
<text text-anchor="middle" x="961" y="-458.9" font-family="Times Roman,serif" font-size="14.00">:</text>
<polyline fill="none" stroke="black" points="971.5,-445 971.5,-481 "/>
<text text-anchor="middle" x="982" y="-458.9" font-family="Times Roman,serif" font-size="14.00"> </text>
<polyline fill="none" stroke="black" points="992.5,-445 992.5,-481 "/>
<text text-anchor="middle" x="1003" y="-458.9" font-family="Times Roman,serif" font-size="14.00"> </text>
</g>
<!-- 19&#45;&gt;21 -->
<g id="edge44" class="edge"><title>19:2&#45;&gt;21:con</title>
<path fill="none" stroke="black" d="M938,-519C938,-503.268 952.605,-501.015 958.539,-490.759"/>
<polygon fill="black" stroke="black" points="961.948,-491.552 961,-481 955.161,-489.84 961.948,-491.552"/>
</g>
<!-- 22 -->
<g id="node23" class="node"><title>22</title>
<polygon fill="none" stroke="black" points="939.5,-371 939.5,-407 998.5,-407 998.5,-371 939.5,-371"/>
<text text-anchor="middle" x="958.5" y="-384.9" font-family="Times Roman,serif" font-size="14.00">C#</text>
<polyline fill="none" stroke="black" points="977.5,-371 977.5,-407 "/>
<text text-anchor="middle" x="988" y="-384.9" font-family="Times Roman,serif" font-size="14.00"> </text>
</g>
<!-- 21&#45;&gt;22 -->
<g id="edge46" class="edge"><title>21:1&#45;&gt;22:con</title>
<path fill="none" stroke="black" d="M982,-445C982,-429.082 966.76,-427.088 960.568,-416.826"/>
<polygon fill="black" stroke="black" points="963.915,-415.79 958,-407 957.143,-417.56 963.915,-415.79"/>
</g>
<!-- 23 -->
<g id="node24" class="node"><title>23</title>
<polygon fill="none" stroke="black" points="1015.5,-371 1015.5,-407 1078.5,-407 1078.5,-371 1015.5,-371"/>
<text text-anchor="middle" x="1026" y="-384.9" font-family="Times Roman,serif" font-size="14.00">:</text>
<polyline fill="none" stroke="black" points="1036.5,-371 1036.5,-407 "/>
<text text-anchor="middle" x="1047" y="-384.9" font-family="Times Roman,serif" font-size="14.00"> </text>
<polyline fill="none" stroke="black" points="1057.5,-371 1057.5,-407 "/>
<text text-anchor="middle" x="1068" y="-384.9" font-family="Times Roman,serif" font-size="14.00"> </text>
</g>
<!-- 21&#45;&gt;23 -->
<g id="edge48" class="edge"><title>21:2&#45;&gt;23:con</title>
<path fill="none" stroke="black" d="M1003,-445C1003,-429.268 1017.61,-427.015 1023.54,-416.759"/>
<polygon fill="black" stroke="black" points="1026.95,-417.552 1026,-407 1020.16,-415.84 1026.95,-417.552"/>
</g>
<!-- 24 -->
<g id="node25" class="node"><title>24</title>
<polygon fill="none" stroke="black" points="1004.5,-297 1004.5,-333 1063.5,-333 1063.5,-297 1004.5,-297"/>
<text text-anchor="middle" x="1023.5" y="-310.9" font-family="Times Roman,serif" font-size="14.00">C#</text>
<polyline fill="none" stroke="black" points="1042.5,-297 1042.5,-333 "/>
<text text-anchor="middle" x="1053" y="-310.9" font-family="Times Roman,serif" font-size="14.00"> </text>
</g>
<!-- 23&#45;&gt;24 -->
<g id="edge50" class="edge"><title>23:1&#45;&gt;24:con</title>
<path fill="none" stroke="black" d="M1047,-371C1047,-355.082 1031.76,-353.088 1025.57,-342.826"/>
<polygon fill="black" stroke="black" points="1028.92,-341.79 1023,-333 1022.14,-343.56 1028.92,-341.79"/>
</g>
<!-- 25 -->
<g id="node26" class="node"><title>25</title>
<polygon fill="none" stroke="black" points="1080.5,-297 1080.5,-333 1143.5,-333 1143.5,-297 1080.5,-297"/>
<text text-anchor="middle" x="1091" y="-310.9" font-family="Times Roman,serif" font-size="14.00">:</text>
<polyline fill="none" stroke="black" points="1101.5,-297 1101.5,-333 "/>
<text text-anchor="middle" x="1112" y="-310.9" font-family="Times Roman,serif" font-size="14.00"> </text>
<polyline fill="none" stroke="black" points="1122.5,-297 1122.5,-333 "/>
<text text-anchor="middle" x="1133" y="-310.9" font-family="Times Roman,serif" font-size="14.00"> </text>
</g>
<!-- 23&#45;&gt;25 -->
<g id="edge52" class="edge"><title>23:2&#45;&gt;25:con</title>
<path fill="none" stroke="black" d="M1068,-371C1068,-355.268 1082.61,-353.015 1088.54,-342.759"/>
<polygon fill="black" stroke="black" points="1091.95,-343.552 1091,-333 1085.16,-341.84 1091.95,-343.552"/>
</g>
<!-- 26 -->
<g id="node27" class="node"><title>26</title>
<polygon fill="none" stroke="black" points="1069.5,-223 1069.5,-259 1128.5,-259 1128.5,-223 1069.5,-223"/>
<text text-anchor="middle" x="1088.5" y="-236.9" font-family="Times Roman,serif" font-size="14.00">C#</text>
<polyline fill="none" stroke="black" points="1107.5,-223 1107.5,-259 "/>
<text text-anchor="middle" x="1118" y="-236.9" font-family="Times Roman,serif" font-size="14.00"> </text>
</g>
<!-- 25&#45;&gt;26 -->
<g id="edge54" class="edge"><title>25:1&#45;&gt;26:con</title>
<path fill="none" stroke="black" d="M1112,-297C1112,-281.082 1096.76,-279.088 1090.57,-268.826"/>
<polygon fill="black" stroke="black" points="1093.92,-267.79 1088,-259 1087.14,-269.56 1093.92,-267.79"/>
</g>
<!-- 27 -->
<g id="node28" class="node"><title>27</title>
<polygon fill="none" stroke="black" points="1145.5,-223 1145.5,-259 1208.5,-259 1208.5,-223 1145.5,-223"/>
<text text-anchor="middle" x="1156" y="-236.9" font-family="Times Roman,serif" font-size="14.00">:</text>
<polyline fill="none" stroke="black" points="1166.5,-223 1166.5,-259 "/>
<text text-anchor="middle" x="1177" y="-236.9" font-family="Times Roman,serif" font-size="14.00"> </text>
<polyline fill="none" stroke="black" points="1187.5,-223 1187.5,-259 "/>
<text text-anchor="middle" x="1198" y="-236.9" font-family="Times Roman,serif" font-size="14.00"> </text>
</g>
<!-- 25&#45;&gt;27 -->
<g id="edge56" class="edge"><title>25:2&#45;&gt;27:con</title>
<path fill="none" stroke="black" d="M1133,-297C1133,-281.268 1147.61,-279.015 1153.54,-268.759"/>
<polygon fill="black" stroke="black" points="1156.95,-269.552 1156,-259 1150.16,-267.84 1156.95,-269.552"/>
</g>
<!-- 28 -->
<g id="node29" class="node"><title>28</title>
<polygon fill="none" stroke="black" points="1134.5,-149 1134.5,-185 1193.5,-185 1193.5,-149 1134.5,-149"/>
<text text-anchor="middle" x="1153.5" y="-162.9" font-family="Times Roman,serif" font-size="14.00">C#</text>
<polyline fill="none" stroke="black" points="1172.5,-149 1172.5,-185 "/>
<text text-anchor="middle" x="1183" y="-162.9" font-family="Times Roman,serif" font-size="14.00"> </text>
</g>
<!-- 27&#45;&gt;28 -->
<g id="edge58" class="edge"><title>27:1&#45;&gt;28:con</title>
<path fill="none" stroke="black" d="M1177,-223C1177,-207.082 1161.76,-205.088 1155.57,-194.826"/>
<polygon fill="black" stroke="black" points="1158.92,-193.79 1153,-185 1152.14,-195.56 1158.92,-193.79"/>
</g>
<!-- 29 -->
<g id="node30" class="node"><title>29</title>
<polygon fill="none" stroke="black" points="1210.5,-149 1210.5,-185 1273.5,-185 1273.5,-149 1210.5,-149"/>
<text text-anchor="middle" x="1221" y="-162.9" font-family="Times Roman,serif" font-size="14.00">:</text>
<polyline fill="none" stroke="black" points="1231.5,-149 1231.5,-185 "/>
<text text-anchor="middle" x="1242" y="-162.9" font-family="Times Roman,serif" font-size="14.00"> </text>
<polyline fill="none" stroke="black" points="1252.5,-149 1252.5,-185 "/>
<text text-anchor="middle" x="1263" y="-162.9" font-family="Times Roman,serif" font-size="14.00"> </text>
</g>
<!-- 27&#45;&gt;29 -->
<g id="edge60" class="edge"><title>27:2&#45;&gt;29:con</title>
<path fill="none" stroke="black" d="M1198,-223C1198,-207.268 1212.61,-205.015 1218.54,-194.759"/>
<polygon fill="black" stroke="black" points="1221.95,-195.552 1221,-185 1215.16,-193.84 1221.95,-195.552"/>
</g>
<!-- 30 -->
<g id="node31" class="node"><title>30</title>
<polygon fill="none" stroke="black" points="1199.5,-75 1199.5,-111 1258.5,-111 1258.5,-75 1199.5,-75"/>
<text text-anchor="middle" x="1218.5" y="-88.9" font-family="Times Roman,serif" font-size="14.00">C#</text>
<polyline fill="none" stroke="black" points="1237.5,-75 1237.5,-111 "/>
<text text-anchor="middle" x="1248" y="-88.9" font-family="Times Roman,serif" font-size="14.00"> </text>
</g>
<!-- 29&#45;&gt;30 -->
<g id="edge62" class="edge"><title>29:1&#45;&gt;30:con</title>
<path fill="none" stroke="black" d="M1242,-149C1242,-133.082 1226.76,-131.088 1220.57,-120.826"/>
<polygon fill="black" stroke="black" points="1223.92,-119.79 1218,-111 1217.14,-121.56 1223.92,-119.79"/>
</g>
<!-- 31 -->
<g id="node32" class="node"><title>31</title>
<polygon fill="none" stroke="black" points="1275.5,-75 1275.5,-111 1338.5,-111 1338.5,-75 1275.5,-75"/>
<text text-anchor="middle" x="1286" y="-88.9" font-family="Times Roman,serif" font-size="14.00">:</text>
<polyline fill="none" stroke="black" points="1296.5,-75 1296.5,-111 "/>
<text text-anchor="middle" x="1307" y="-88.9" font-family="Times Roman,serif" font-size="14.00"> </text>
<polyline fill="none" stroke="black" points="1317.5,-75 1317.5,-111 "/>
<text text-anchor="middle" x="1328" y="-88.9" font-family="Times Roman,serif" font-size="14.00"> </text>
</g>
<!-- 29&#45;&gt;31 -->
<g id="edge64" class="edge"><title>29:2&#45;&gt;31:con</title>
<path fill="none" stroke="black" d="M1263,-149C1263,-133.268 1277.61,-131.015 1283.54,-120.759"/>
<polygon fill="black" stroke="black" points="1286.95,-121.552 1286,-111 1280.16,-119.84 1286.95,-121.552"/>
</g>
<!-- 32 -->
<g id="node33" class="node"><title>32</title>
<polygon fill="none" stroke="black" points="1256.5,-1 1256.5,-37 1315.5,-37 1315.5,-1 1256.5,-1"/>
<text text-anchor="middle" x="1275.5" y="-14.9" font-family="Times Roman,serif" font-size="14.00">C#</text>
<polyline fill="none" stroke="black" points="1294.5,-1 1294.5,-37 "/>
<text text-anchor="middle" x="1305" y="-14.9" font-family="Times Roman,serif" font-size="14.00"> </text>
</g>
<!-- 31&#45;&gt;32 -->
<g id="edge66" class="edge"><title>31:1&#45;&gt;32:con</title>
<path fill="none" stroke="black" d="M1307,-75C1307,-57.0604 1285.88,-57.7626 1277.95,-46.8137"/>
<polygon fill="black" stroke="black" points="1281.23,-45.5673 1275,-37 1274.53,-47.5844 1281.23,-45.5673"/>
</g>
<!-- 33 -->
<g id="node34" class="node"><title>33</title>
<polygon fill="none" stroke="black" points="1333,-1 1333,-37 1387,-37 1387,-1 1333,-1"/>
<text text-anchor="middle" x="1360" y="-14.9" font-family="Times Roman,serif" font-size="14.00">[]</text>
</g>
<!-- 31&#45;&gt;33 -->
<g id="edge68" class="edge"><title>31:2&#45;&gt;33:con</title>
<path fill="none" stroke="black" d="M1328,-74C1328,-63.9971 1332,-54.1896 1337.18,-45.6906"/>
<polygon fill="black" stroke="black" points="1340.12,-47.585 1342.88,-37.3542 1334.34,-43.635 1340.12,-47.585"/>
</g>
</g>
</svg>
