<?xml version="1.0" encoding="UTF-8" standalone="no"?>
<!DOCTYPE svg PUBLIC "-//W3C//DTD SVG 1.1//EN"
 "http://www.w3.org/Graphics/SVG/1.1/DTD/svg11.dtd">
<!-- Generated by graphviz version 2.26.3 (20100126.1600)
 -->
<!-- Title: vacuumed Pages: 1 -->
<svg width="79pt" height="157pt"
 viewBox="0.00 0.00 79.00 156.50" xmlns="http://www.w3.org/2000/svg" xmlns:xlink="http://www.w3.org/1999/xlink">
<g id="graph1" class="graph" transform="scale(1 1) rotate(0) translate(4 152.5)">
<title>vacuumed</title>
<polygon fill="white" stroke="white" points="-4,5 -4,-152.5 76,-152.5 76,5 -4,5"/>
<!-- 0 -->
<g id="node1" class="node"><title>0</title>
<polygon fill="none" stroke="black" points="-0.5,-75 -0.5,-111 62.5,-111 62.5,-75 -0.5,-75"/>
<text text-anchor="middle" x="10" y="-88.9" font-family="Times Roman,serif" font-size="14.00">:</text>
<polyline fill="none" stroke="black" points="20.5,-75 20.5,-111 "/>
<text text-anchor="middle" x="31" y="-88.9" font-family="Times Roman,serif" font-size="14.00"> </text>
<polyline fill="none" stroke="black" points="41.5,-75 41.5,-111 "/>
<text text-anchor="middle" x="52" y="-88.9" font-family="Times Roman,serif" font-size="14.00"> </text>
</g>
<!-- 0&#45;&gt;0 -->
<g id="edge4" class="edge"><title>0:2&#45;&gt;0:con</title>
<path fill="none" stroke="black" d="M56.9347,-111.191C58.757,-128.968 52.7969,-148.5 31,-148.5 13.29,-148.5 6.03484,-135.606 4.91414,-121.235"/>
<polygon fill="black" stroke="black" points="8.41434,-121.242 5.06526,-111.191 1.41513,-121.137 8.41434,-121.242"/>
</g>
<!-- 1 -->
<g id="node2" class="node"><title>1</title>
<polygon fill="none" stroke="black" points="12.5,-1 12.5,-37 71.5,-37 71.5,-1 12.5,-1"/>
<text text-anchor="middle" x="31.5" y="-14.9" font-family="Times Roman,serif" font-size="14.00">S#</text>
<polyline fill="none" stroke="black" points="50.5,-1 50.5,-37 "/>
<text text-anchor="middle" x="61" y="-14.9" font-family="Times Roman,serif" font-size="14.00"> </text>
</g>
<!-- 0&#45;&gt;1 -->
<g id="edge2" class="edge"><title>0:1&#45;&gt;1:con</title>
<path fill="none" stroke="black" d="M31,-75C31,-62.0694 31,-56.5639 31,-47.1138"/>
<polygon fill="black" stroke="black" points="34.5001,-47 31,-37 27.5001,-47 34.5001,-47"/>
</g>
</g>
</svg>
