<?xml version="1.0" encoding="UTF-8" standalone="no"?>
<!DOCTYPE svg PUBLIC "-//W3C//DTD SVG 1.1//EN"
 "http://www.w3.org/Graphics/SVG/1.1/DTD/svg11.dtd">
<!-- Generated by graphviz version 2.26.3 (20100126.1600)
 -->
<!-- Title: vacuumed Pages: 1 -->
<svg width="376pt" height="342pt"
 viewBox="0.00 0.00 376.00 342.00" xmlns="http://www.w3.org/2000/svg" xmlns:xlink="http://www.w3.org/1999/xlink">
<g id="graph1" class="graph" transform="scale(1 1) rotate(0) translate(4 338)">
<title>vacuumed</title>
<polygon fill="white" stroke="white" points="-4,5 -4,-338 373,-338 373,5 -4,5"/>
<!-- 0 -->
<g id="node1" class="node"><title>0</title>
<polygon fill="none" stroke="black" points="45,-297 45,-333 119,-333 119,-297 45,-297"/>
<text text-anchor="middle" x="61" y="-310.9" font-family="Times Roman,serif" font-size="14.00">(,)</text>
<polyline fill="none" stroke="black" points="77,-297 77,-333 "/>
<text text-anchor="middle" x="87.5" y="-310.9" font-family="Times Roman,serif" font-size="14.00"> </text>
<polyline fill="none" stroke="black" points="98,-297 98,-333 "/>
<text text-anchor="middle" x="108.5" y="-310.9" font-family="Times Roman,serif" font-size="14.00"> </text>
</g>
<!-- 1 -->
<g id="node2" class="node"><title>1</title>
<polygon fill="none" stroke="black" points="33.5,-223 33.5,-259 96.5,-259 96.5,-223 33.5,-223"/>
<text text-anchor="middle" x="44" y="-236.9" font-family="Times Roman,serif" font-size="14.00">:</text>
<polyline fill="none" stroke="black" points="54.5,-223 54.5,-259 "/>
<text text-anchor="middle" x="65" y="-236.9" font-family="Times Roman,serif" font-size="14.00"> </text>
<polyline fill="none" stroke="black" points="75.5,-223 75.5,-259 "/>
<text text-anchor="middle" x="86" y="-236.9" font-family="Times Roman,serif" font-size="14.00"> </text>
</g>
<!-- 0&#45;&gt;1 -->
<g id="edge2" class="edge"><title>0:1&#45;&gt;1:con</title>
<path fill="none" stroke="black" d="M88,-297C88,-275.4 57.2532,-281.415 47.1644,-268.876"/>
<polygon fill="black" stroke="black" points="50.3845,-267.455 44,-259 43.7184,-269.591 50.3845,-267.455"/>
</g>
<!-- 2 -->
<g id="node3" class="node"><title>2</title>
<polygon fill="none" stroke="black" points="142.5,-223 142.5,-259 205.5,-259 205.5,-223 142.5,-223"/>
<text text-anchor="middle" x="153" y="-236.9" font-family="Times Roman,serif" font-size="14.00">:</text>
<polyline fill="none" stroke="black" points="163.5,-223 163.5,-259 "/>
<text text-anchor="middle" x="174" y="-236.9" font-family="Times Roman,serif" font-size="14.00"> </text>
<polyline fill="none" stroke="black" points="184.5,-223 184.5,-259 "/>
<text text-anchor="middle" x="195" y="-236.9" font-family="Times Roman,serif" font-size="14.00"> </text>
</g>
<!-- 0&#45;&gt;2 -->
<g id="edge4" class="edge"><title>0:2&#45;&gt;2:con</title>
<path fill="none" stroke="black" d="M109,-297C109,-275.4 139.747,-281.415 149.836,-268.876"/>
<polygon fill="black" stroke="black" points="153.282,-269.591 153,-259 146.615,-267.455 153.282,-269.591"/>
</g>
<!-- 3 -->
<g id="node4" class="node"><title>3</title>
<polygon fill="none" stroke="black" points="-0.5,-149 -0.5,-185 58.5,-185 58.5,-149 -0.5,-149"/>
<text text-anchor="middle" x="18.5" y="-162.9" font-family="Times Roman,serif" font-size="14.00">S#</text>
<polyline fill="none" stroke="black" points="37.5,-149 37.5,-185 "/>
<text text-anchor="middle" x="48" y="-162.9" font-family="Times Roman,serif" font-size="14.00"> </text>
</g>
<!-- 1&#45;&gt;3 -->
<g id="edge6" class="edge"><title>1:1&#45;&gt;3:con</title>
<path fill="none" stroke="black" d="M65,-223C65,-200.335 31.54,-207.988 21.0838,-194.797"/>
<polygon fill="black" stroke="black" points="24.3409,-193.488 18,-185 17.6639,-195.59 24.3409,-193.488"/>
</g>
<!-- 4 -->
<g id="node5" class="node"><title>4</title>
<polygon fill="none" stroke="black" points="75.5,-149 75.5,-185 138.5,-185 138.5,-149 75.5,-149"/>
<text text-anchor="middle" x="86" y="-162.9" font-family="Times Roman,serif" font-size="14.00">:</text>
<polyline fill="none" stroke="black" points="96.5,-149 96.5,-185 "/>
<text text-anchor="middle" x="107" y="-162.9" font-family="Times Roman,serif" font-size="14.00"> </text>
<polyline fill="none" stroke="black" points="117.5,-149 117.5,-185 "/>
<text text-anchor="middle" x="128" y="-162.9" font-family="Times Roman,serif" font-size="14.00"> </text>
</g>
<!-- 1&#45;&gt;4 -->
<g id="edge8" class="edge"><title>1:2&#45;&gt;4:con</title>
<path fill="none" stroke="black" d="M86,-223C86,-210.069 86,-204.564 86,-195.114"/>
<polygon fill="black" stroke="black" points="89.5001,-195 86,-185 82.5001,-195 89.5001,-195"/>
</g>
<!-- 9 -->
<g id="node10" class="node"><title>9</title>
<polygon fill="none" stroke="black" points="155.5,-149 155.5,-185 214.5,-185 214.5,-149 155.5,-149"/>
<text text-anchor="middle" x="174.5" y="-162.9" font-family="Times Roman,serif" font-size="14.00">S#</text>
<polyline fill="none" stroke="black" points="193.5,-149 193.5,-185 "/>
<text text-anchor="middle" x="204" y="-162.9" font-family="Times Roman,serif" font-size="14.00"> </text>
</g>
<!-- 2&#45;&gt;9 -->
<g id="edge10" class="edge"><title>2:1&#45;&gt;9:con</title>
<path fill="none" stroke="black" d="M174,-223C174,-210.069 174,-204.564 174,-195.114"/>
<polygon fill="black" stroke="black" points="177.5,-195 174,-185 170.5,-195 177.5,-195"/>
</g>
<!-- 10 -->
<g id="node11" class="node"><title>10</title>
<polygon fill="none" stroke="black" points="231.5,-149 231.5,-185 294.5,-185 294.5,-149 231.5,-149"/>
<text text-anchor="middle" x="242" y="-162.9" font-family="Times Roman,serif" font-size="14.00">:</text>
<polyline fill="none" stroke="black" points="252.5,-149 252.5,-185 "/>
<text text-anchor="middle" x="263" y="-162.9" font-family="Times Roman,serif" font-size="14.00"> </text>
<polyline fill="none" stroke="black" points="273.5,-149 273.5,-185 "/>
<text text-anchor="middle" x="284" y="-162.9" font-family="Times Roman,serif" font-size="14.00"> </text>
</g>
<!-- 2&#45;&gt;10 -->
<g id="edge12" class="edge"><title>2:2&#45;&gt;10:con</title>
<path fill="none" stroke="black" d="M195,-223C195,-200.335 228.46,-207.988 238.916,-194.797"/>
<polygon fill="black" stroke="black" points="242.336,-195.59 242,-185 235.659,-193.488 242.336,-195.59"/>
</g>
<!-- 5 -->
<g id="node6" class="node"><title>5</title>
<polygon fill="none" stroke="black" points="64.5,-75 64.5,-111 123.5,-111 123.5,-75 64.5,-75"/>
<text text-anchor="middle" x="83.5" y="-88.9" font-family="Times Roman,serif" font-size="14.00">S#</text>
<polyline fill="none" stroke="black" points="102.5,-75 102.5,-111 "/>
<text text-anchor="middle" x="113" y="-88.9" font-family="Times Roman,serif" font-size="14.00"> </text>
</g>
<!-- 4&#45;&gt;5 -->
<g id="edge14" class="edge"><title>4:1&#45;&gt;5:con</title>
<path fill="none" stroke="black" d="M107,-149C107,-133.082 91.7598,-131.088 85.5684,-120.826"/>
<polygon fill="black" stroke="black" points="88.9152,-119.79 83,-111 82.1428,-121.56 88.9152,-119.79"/>
</g>
<!-- 6 -->
<g id="node7" class="node"><title>6</title>
<polygon fill="none" stroke="black" points="140.5,-75 140.5,-111 203.5,-111 203.5,-75 140.5,-75"/>
<text text-anchor="middle" x="151" y="-88.9" font-family="Times Roman,serif" font-size="14.00">:</text>
<polyline fill="none" stroke="black" points="161.5,-75 161.5,-111 "/>
<text text-anchor="middle" x="172" y="-88.9" font-family="Times Roman,serif" font-size="14.00"> </text>
<polyline fill="none" stroke="black" points="182.5,-75 182.5,-111 "/>
<text text-anchor="middle" x="193" y="-88.9" font-family="Times Roman,serif" font-size="14.00"> </text>
</g>
<!-- 4&#45;&gt;6 -->
<g id="edge16" class="edge"><title>4:2&#45;&gt;6:con</title>
<path fill="none" stroke="black" d="M128,-149C128,-133.268 142.605,-131.015 148.539,-120.759"/>
<polygon fill="black" stroke="black" points="151.948,-121.552 151,-111 145.161,-119.84 151.948,-121.552"/>
</g>
<!-- 7 -->
<g id="node8" class="node"><title>7</title>
<polygon fill="none" stroke="black" points="153.5,-1 153.5,-37 212.5,-37 212.5,-1 153.5,-1"/>
<text text-anchor="middle" x="172.5" y="-14.9" font-family="Times Roman,serif" font-size="14.00">S#</text>
<polyline fill="none" stroke="black" points="191.5,-1 191.5,-37 "/>
<text text-anchor="middle" x="202" y="-14.9" font-family="Times Roman,serif" font-size="14.00"> </text>
</g>
<!-- 6&#45;&gt;7 -->
<g id="edge18" class="edge"><title>6:1&#45;&gt;7:con</title>
<path fill="none" stroke="black" d="M172,-75C172,-62.0694 172,-56.5639 172,-47.1138"/>
<polygon fill="black" stroke="black" points="175.5,-47 172,-37 168.5,-47 175.5,-47"/>
</g>
<!-- 8 -->
<g id="node9" class="node"><title>8</title>
<polygon fill="none" stroke="black" points="234,-1 234,-37 288,-37 288,-1 234,-1"/>
<text text-anchor="middle" x="261" y="-14.9" font-family="Times Roman,serif" font-size="14.00">[]</text>
</g>
<!-- 6&#45;&gt;8 -->
<g id="edge20" class="edge"><title>6:2&#45;&gt;8:con</title>
<path fill="none" stroke="black" d="M193,-74C193,-69.172 209.785,-55.5654 226.676,-43.0947"/>
<polygon fill="black" stroke="black" points="228.878,-45.8215 234.904,-37.1075 224.759,-40.1615 228.878,-45.8215"/>
</g>
<!-- 11 -->
<g id="node12" class="node"><title>11</title>
<polygon fill="none" stroke="black" points="220.5,-75 220.5,-111 279.5,-111 279.5,-75 220.5,-75"/>
<text text-anchor="middle" x="239.5" y="-88.9" font-family="Times Roman,serif" font-size="14.00">S#</text>
<polyline fill="none" stroke="black" points="258.5,-75 258.5,-111 "/>
<text text-anchor="middle" x="269" y="-88.9" font-family="Times Roman,serif" font-size="14.00"> </text>
</g>
<!-- 10&#45;&gt;11 -->
<g id="edge22" class="edge"><title>10:1&#45;&gt;11:con</title>
<path fill="none" stroke="black" d="M263,-149C263,-133.082 247.76,-131.088 241.568,-120.826"/>
<polygon fill="black" stroke="black" points="244.915,-119.79 239,-111 238.143,-121.56 244.915,-119.79"/>
</g>
<!-- 12 -->
<g id="node13" class="node"><title>12</title>
<polygon fill="none" stroke="black" points="296.5,-75 296.5,-111 359.5,-111 359.5,-75 296.5,-75"/>
<text text-anchor="middle" x="307" y="-88.9" font-family="Times Roman,serif" font-size="14.00">:</text>
<polyline fill="none" stroke="black" points="317.5,-75 317.5,-111 "/>
<text text-anchor="middle" x="328" y="-88.9" font-family="Times Roman,serif" font-size="14.00"> </text>
<polyline fill="none" stroke="black" points="338.5,-75 338.5,-111 "/>
<text text-anchor="middle" x="349" y="-88.9" font-family="Times Roman,serif" font-size="14.00"> </text>
</g>
<!-- 10&#45;&gt;12 -->
<g id="edge24" class="edge"><title>10:2&#45;&gt;12:con</title>
<path fill="none" stroke="black" d="M284,-149C284,-133.268 298.605,-131.015 304.539,-120.759"/>
<polygon fill="black" stroke="black" points="307.948,-121.552 307,-111 301.161,-119.84 307.948,-121.552"/>
</g>
<!-- 12&#45;&gt;8 -->
<g id="edge28" class="edge"><title>12:2&#45;&gt;8:con</title>
<path fill="none" stroke="black" d="M349,-74C349,-45.8617 321.713,-52.4152 296.546,-41.8804"/>
<polygon fill="black" stroke="black" points="297.91,-38.6447 287.424,-37.1301 294.677,-44.8533 297.91,-38.6447"/>
</g>
<!-- 13 -->
<g id="node14" class="node"><title>13</title>
<polygon fill="none" stroke="black" points="309.5,-1 309.5,-37 368.5,-37 368.5,-1 309.5,-1"/>
<text text-anchor="middle" x="328.5" y="-14.9" font-family="Times Roman,serif" font-size="14.00">S#</text>
<polyline fill="none" stroke="black" points="347.5,-1 347.5,-37 "/>
<text text-anchor="middle" x="358" y="-14.9" font-family="Times Roman,serif" font-size="14.00"> </text>
</g>
<!-- 12&#45;&gt;13 -->
<g id="edge26" class="edge"><title>12:1&#45;&gt;13:con</title>
<path fill="none" stroke="black" d="M328,-75C328,-62.0694 328,-56.5639 328,-47.1138"/>
<polygon fill="black" stroke="black" points="331.5,-47 328,-37 324.5,-47 331.5,-47"/>
</g>
</g>
</svg>
